<svg width="105" height="55" viewBox="0 0 105 55" fill="none" xmlns="http://www.w3.org/2000/svg">
<path d="M24.2983 24.5852L24.7195 25.1268V29.0384L1.67093 38.1857L1.12931 37.8848L0.407164 35.1165L20.9884 27.1729V26.8118L0.527523 18.3266L0.286806 17.9053L1.37003 15.1371L24.2983 24.5852ZM37.8668 15.438L37.4455 30.904L37.7464 41.8566C37.7464 44.9859 37.1045 47.4934 35.8207 49.379C34.577 51.3047 32.4306 53.07 29.3815 54.6747L27.5762 52.5083V51.9667C29.7025 50.723 31.1668 49.379 31.9692 47.9347C32.8117 46.4904 33.233 44.5446 33.233 42.0973L33.3533 31.3253L33.1126 18.6876H27.5762L27.2151 18.2664L27.516 15.4981H33.1728L37.6862 15.3176L37.8668 15.438ZM34.6171 3.10125C35.4195 3.10125 36.0614 3.34197 36.5428 3.8234C37.0243 4.30483 37.265 4.9668 37.265 5.80931C37.265 6.69194 37.0042 7.39403 36.4827 7.91558C36.0012 8.43713 35.3192 8.69791 34.4366 8.69791C33.5941 8.69791 32.9321 8.45719 32.4507 7.97576C32.0093 7.49432 31.7887 6.81229 31.7887 5.92967C31.7887 5.08716 32.0294 4.40513 32.5108 3.88358C33.0324 3.36203 33.7345 3.10125 34.6171 3.10125ZM59.2092 0.633905C60.6535 0.633905 62.2182 0.814442 63.9032 1.17552L63.5421 4.90662L63.181 5.20752C61.7367 4.48537 60.2724 4.12429 58.788 4.12429C57.2233 4.12429 56.0197 4.62579 55.1772 5.62877C54.3347 6.59164 53.8934 8.03594 53.8533 9.96167L53.7931 15.4981H61.0146L61.1951 15.8592L60.8942 18.6876H53.7329L53.6125 30.904L53.9134 43H49.1593L49.5204 31.2651L49.4 18.6876H45.2477L45.0069 18.3266L45.3078 15.4981H49.4L49.3398 10.6838C49.2997 7.43415 50.1422 4.94674 51.8674 3.22161C53.5925 1.49647 56.0398 0.633905 59.2092 0.633905ZM100.356 24.2843C100.396 22.6394 100.015 21.3556 99.2123 20.4328C98.4099 19.5101 97.2264 19.0487 95.6618 19.0487C93.0941 19.0487 90.4262 20.4328 87.6579 23.2011L87.5376 31.0244L87.7783 43H82.9038L83.2649 24.2843C83.305 22.6394 82.9238 21.3556 82.1215 20.4328C81.3191 19.5101 80.1356 19.0487 78.5709 19.0487C76.0434 19.0487 73.3153 20.473 70.3865 23.3214V30.904L70.6273 43H65.8731L66.174 31.3253L65.9333 15.7389L70.4467 15.3176V19.3496H70.8078C73.2952 17.143 75.8428 15.7188 78.4505 15.0769C80.6972 15.0769 82.5427 15.4781 83.987 16.2805C85.4313 17.0427 86.4544 18.1661 87.0561 19.6505H87.4172C89.9447 17.3637 92.6528 15.8392 95.5414 15.0769C98.5905 15.0769 100.897 15.779 102.462 17.1832C104.027 18.5873 104.789 20.5933 104.749 23.2011L104.628 31.0244L104.869 43H100.055L100.356 24.2843Z" fill="white"/>
</svg>
